<?xml version="1.0" standalone="no"?>
<!DOCTYPE svg PUBLIC "-//W3C//DTD SVG 20010904//EN"
 "http://www.w3.org/TR/2001/REC-SVG-20010904/DTD/svg10.dtd">
<svg version="1.0" xmlns="http://www.w3.org/2000/svg"
 width="500.000000pt" height="135.000000pt" viewBox="0 0 500.000000 135.000000"
 preserveAspectRatio="xMidYMid meet">

<g transform="translate(0.000000,135.000000) scale(0.100000,-0.100000)"
fill="#000000" stroke="none">
<path d="M1877 1123 c-4 -3 -7 -18 -7 -32 0 -15 -18 -130 -41 -256 -44 -249
-49 -263 -116 -291 -18 -8 -35 -14 -38 -14 -3 0 -5 28 -5 63 0 132 -72 203
-200 194 -73 -5 -128 -29 -176 -76 -29 -29 -74 -108 -74 -130 0 -10 -37 -36
-66 -45 -20 -6 -22 -2 -26 67 -8 117 -56 173 -160 184 -111 11 -209 -39 -261
-134 -27 -51 -50 -165 -40 -202 4 -16 -5 -25 -44 -44 -159 -81 -326 -45 -379
82 -63 150 19 419 148 487 15 8 45 14 68 14 57 0 80 -26 80 -91 0 -55 -10 -80
-47 -121 -25 -26 -25 -26 -5 -37 78 -42 162 25 162 128 0 127 -105 199 -250
171 -166 -32 -284 -171 -311 -366 -34 -254 125 -423 365 -386 72 12 168 51
202 83 l22 20 21 -34 c30 -49 82 -72 161 -71 111 1 196 58 242 161 10 24 26
43 34 43 8 0 28 7 44 15 l30 16 0 -51 c0 -64 19 -109 59 -143 112 -94 301 -36
371 114 13 27 30 49 37 49 8 0 32 9 55 21 l41 21 -7 -61 c-9 -79 0 -124 31
-155 50 -50 135 -41 205 22 41 37 74 95 63 112 -3 5 -25 -11 -49 -35 -44 -47
-88 -59 -114 -33 -20 20 -14 69 38 363 27 154 50 299 50 323 0 36 -4 44 -26
52 -29 11 -78 13 -87 3z m-893 -405 c21 -30 20 -55 -3 -68 -36 -19 -36 -81 0
-130 15 -21 -25 -126 -62 -162 -34 -34 -78 -37 -105 -7 -45 51 -9 290 55 358
37 39 91 43 115 9z m538 5 c25 -30 29 -61 7 -68 -35 -11 -41 -77 -12 -126 14
-24 14 -31 -2 -80 -41 -122 -143 -160 -175 -64 -24 72 18 259 71 320 35 40 85
48 111 18z"/>
<path d="M4321 1121 c-7 -5 -11 -13 -7 -19 5 -8 -31 -248 -49 -328 -5 -22 -5
-22 -42 -3 -124 63 -274 -42 -312 -219 -30 -142 6 -235 100 -263 53 -16 118 9
161 62 l32 40 20 -43 c17 -34 29 -46 61 -57 49 -16 110 -3 152 33 l27 24 31
-24 c41 -31 117 -47 185 -39 109 14 170 68 170 152 0 57 -32 92 -135 146 -48
26 -86 54 -95 70 -13 24 -13 28 6 54 22 29 64 40 110 29 27 -7 54 -53 54 -90
0 -48 74 -44 100 5 17 31 -16 88 -64 113 -91 46 -237 26 -295 -39 -26 -30 -31
-44 -31 -85 0 -64 25 -93 129 -148 112 -60 132 -92 86 -137 -18 -18 -35 -25
-65 -25 -58 0 -80 25 -92 105 -6 36 -81 32 -93 -5 -16 -49 -83 -78 -113 -48
-20 20 -14 82 38 380 28 158 50 298 50 312 0 44 -76 74 -119 47z m-91 -421
c24 -24 24 -20 1 -113 -35 -133 -89 -217 -143 -217 -46 0 -62 36 -55 125 6 86
34 155 78 196 38 35 89 39 119 9z"/>
<path d="M2613 1039 c-114 -22 -203 -92 -257 -200 -44 -87 -60 -163 -54 -259
8 -133 67 -223 177 -273 93 -42 261 -23 363 42 44 28 47 29 53 11 10 -31 61
-68 105 -75 52 -9 119 22 151 70 27 39 39 44 39 16 0 -29 46 -79 79 -86 42 -9
106 11 146 46 l35 31 0 -25 c0 -32 34 -57 75 -57 36 0 60 14 51 28 -11 19 30
195 60 256 33 67 81 124 109 128 17 3 20 -3 20 -35 0 -35 2 -37 32 -37 45 0
62 9 78 41 22 42 18 77 -11 106 -21 21 -32 25 -65 20 -47 -6 -99 -43 -141
-101 l-30 -41 7 57 c7 53 6 57 -18 73 -16 10 -40 15 -64 13 -37 -3 -38 -4 -41
-43 -5 -74 -43 -279 -58 -306 -29 -57 -101 -88 -132 -57 -7 7 -12 28 -11 48 0
29 46 291 60 340 3 11 -6 16 -37 18 -32 2 -48 -2 -70 -21 l-28 -24 -34 23
c-48 33 -105 32 -173 -4 -89 -46 -149 -158 -149 -279 0 -44 -4 -55 -23 -67
-78 -52 -231 -66 -302 -29 -22 11 -48 29 -57 40 -80 88 -77 286 6 437 44 82
91 118 159 124 49 4 56 2 75 -23 14 -17 22 -42 22 -64 0 -44 -31 -115 -56
-129 -16 -9 -16 -12 -4 -27 11 -13 25 -16 58 -12 78 9 122 78 108 172 -10 65
-64 119 -135 134 -58 12 -59 12 -118 0z m592 -339 c14 -15 16 -29 11 -65 -16
-105 -78 -237 -121 -257 -38 -17 -72 -3 -84 35 -14 40 -2 141 24 204 35 87
126 132 170 83z"/>
</g>
</svg>
